<svg version="1.1" id="svg" xmlns="http://www.w3.org/2000/svg" x="0" y="0" viewBox="0 0 100 100" style="enable-background:new 0 0 100 100" xml:space="preserve"><style>.st0{fill:#8c818f}.st2{fill:#766d78}.st3{fill:#c67e68}.st4{fill:#62a4fa}.st7{fill:#fdccbd}.st10{fill:#eaae9d}.st11{fill:#c4bdc5}</style><path class="st0" d="m57.8 66.8.3.3v.4c-.2.2-.4.4-.7.6-1.1 1-1.7 2.1-1.9 3.5v.7c-.1-.1-.2-.1-.3-.2-2.9-1.7-6.1-2.5-9.5-1.7-.6.2-1.2.5-1.8.8l-.6.3c-1.1.6-1.6 1-2 2.2-.5 1-1.2 1.7-1.9 2.5-1.3 1.5-1.5 2.7-1.5 4.7v.5c0 .9 0 1.7.2 2.6.1 0 .3-.1.4-.1.2 0 .4-.1.5-.2.2 0 .3-.1.5-.1 1.2-.3 2.3-.4 3.5-.4H53.2c2.1 0 3.9.2 5.9.8.2-1.1.2-2 .2-3.1v-.5c0-1.1-.1-2.1-.4-3.2l.6.3c1.1.4 2.3.5 3.4.1.3-.1.6-.3.8-.4.4-.2.4-.2 1.1-.2v.5c.1 1.4.1 1.4.8 2.5.8.6 1.8 1 2.7 1.4.3.1.6.3.8.4l2.1.9v5.5h9.4c2.1 0 4.1.3 5.7 1.8 1.4 1.7 2 3.4 2 5.5v.7c-.1.7-.1.9-.6 1.3-.6.1-.6.1-1.3.1H9.8c-.6-.1-.6-.1-.9-.4-.6-1.2-.3-3 0-4.3.7-2 2-3.3 3.8-4.3.8-.3 1.5-.4 2.3-.4h10.7v-.5c0-.6 0-1.2-.1-1.8v-.8c-.1-2.1-.1-2.1.4-2.7l1.2-.6c.3-.1.3-.1.6-.3.2-.1.4-.2.5-.3l.6-.3 1.2-.6c.3-.1.3-.1.6-.3.2-.1.4-.2.5-.3.4-.2.4-.2.6-.6.4-1.6.4-1.6.1-3.2l-.6-.6c-.3-.3-.3-.3-.3-.9.1-.8.3-1 .8-1.6l.5-.5c.2-.2.3-.4.5-.6l.3-.3c.5-.6 1-1.1 1.6-1.7.4-.5.9-1 1.3-1.4.5-.6 1-1.1 1.7-1.6.4.1.7.1 1.1.2.8 0 1.4-.5 2.1-.9 1-.6 1.9-.9 3-1.3.2-.1.4-.1.5-.2 4.5-1.1 9.6 0 13.4 2.3z"/><path d="M37.6 52.3H43l.2.4c.1.2.1.2.2.5.1.2.2.3.2.5.8 1.4 2.3 2.5 3.8 3 1.5.3 2.8.1 4.1-.7 1.4-1.1 2.3-2 3-3.7h3.9c3.1-.1 5.9.4 8.3 2.5 1.3 1.4 2.1 2.9 2.8 4.7.1.2.1.3.2.5s.1.3.2.5.1.3.2.5c1.1 2.6 2.2 5.3 3.3 8 .2.6.5 1.2.7 1.7.2.4.3.8.5 1.1.1.2.2.4.2.6.4.9.7 1.8 1.1 2.7.1.2.1.3.2.5.1.3.2.6.4.9.3.8.7 1.5 1.2 2.3.4 1.1.4 2.2-.1 3.2-.5.9-1.2 1.4-2.1 1.8-1.5.2-2.6 0-3.9-.7v-.4c-.2-.1-.3-.1-.5-.2-1.1-.4-2.1-.9-3.1-1.4-.2-.1-.2-.1-.3-.2-.3-.2-.6-.3-1-.5l-.6-.3c-.7-.5-.8-1-1-1.8 0-.3 0-.3-.1-.5 0-.2-.1-.4-.1-.5 0-.1 0-.3-.1-.4-.1.1-.2.1-.3.2-1.4.7-2.8 1.1-4.3.6-.4-.2-.4-.2-.9-.4.1.2.1.4.2.6.2 1 .2 1.9.2 2.9v.5c0 .9 0 1.7-.4 2.6-.3-.1-.6-.1-1-.2-.2 0-.4-.1-.5-.1-.3-.1-.6-.1-.9-.2-.6-.1-1.3-.1-1.9-.1H44.7c-1.8 0-3.6.1-5.4.5-.6.1-.6.1-1.1.1-.4-1-.4-2-.4-3.1v-.5c0-1.6.3-2.8 1.4-4 .1-.2.3-.3.4-.5.1-.2.3-.3.4-.5.9-1.1.9-1.1 1.5-2.3.8-1.5 2.7-2.1 4.2-2.7 2.8-.8 5.9-.3 8.3 1.1.4.3.9.5 1.3.8v-.4c.3-1.8 1-3 2.4-4.2h.4v-.4l-.4-.2c-.5-.2-1-.5-1.5-.7-.9-.5-1.9-.8-2.9-1.1-.1-.2-.2-.2-.3-.2-4.6-1.3-9-.3-13.1 1.9-.1.1-.3.2-.4.2-.3.1-.3.1-.9 0-.8 0-.8 0-1.4.5l-.8.8-.5.5c-1 1.1-1.9 2.2-2.8 3.3-.3.4-.7.8-1 1.1-.4.5-.5.6-.6 1.2.1.7.2.8.7 1.2.5.5.5.7.5 1.4-.1 1.2-.2 2.1-1.1 2.8l-1.2.6c-.1.1-.2.1-.3.2-.4.2-.7.3-1.1.5-1.4.7-2.8 1.4-4.1 2.2-1 .3-2.2.4-3.2 0-1-.6-1.6-1.3-2-2.4-.1-1.1 0-2 .5-2.9.9-1.7 1.6-3.5 2.3-5.3.3-.8.6-1.5.9-2.3.1-.2.1-.3.2-.5l2.1-5.1c.2-.6.5-1.1.7-1.7l.6-1.5c.1-.2.2-.5.3-.7 1.5-3.6 3-6.4 6.6-8.3 1.3-.3 2.4-.5 3.7-.4z" style="fill:#80b5fb"/><path class="st0" d="M49.1 3.5c.2.1.2.1.4.1 1.2.4 2.5.9 3.6 1.6 1.3.6 2.5.7 3.9.8 3.1.4 5.8 1.5 7.8 4 1.6 2.2 2.4 4.6 2.4 7.3v.4c0 1.7 0 3.4-.1 5.1v3.3c0 1-.1 2-.2 3-.8 0-1.6-.1-2.4-.1h-2c-.5 0-.5 0-.6-.2 0-.3-.1-.6-.1-.8-.5-4.4-1.2-9.9-4.3-13.2-.7-.5-1.3-.5-2-.4-.6.3-1 .6-1.5 1-4.1 2.9-8.8 4.9-13.8 5.4-1.2.2-2.3.5-3.2 1.4-1 2-1.1 4.5-1.4 6.8-1.6.1-3.2.1-4.8.2-.2-.8-.2-1.5-.2-2.3v-4.2c0-1.3-.5-2.3-1.2-3.4-1.3-2.2-1.4-4.6-1-7C29 9 31.2 6.4 34 4.7c4.5-2.3 10.2-2.8 15.1-1.2z"/><path class="st2" d="M9.3 92.6h78.8c.3 1.1.4 1.8.4 2.8v.7c-.1.7-.1.9-.6 1.3-.6.1-.6.1-1.3.1H10c-.6-.1-.6-.1-.9-.4-.3-.6-.3-1-.3-1.6v-.7c.1-.7.1-.7.5-2.2z"/><path class="st3" d="m57.8 66.8.3.3v.4c-.2.2-.4.4-.7.6-1.1 1-1.7 2.1-1.9 3.5v.7c-.1-.1-.2-.1-.3-.2-2.9-1.7-6.1-2.5-9.5-1.7-.6.2-1.2.5-1.8.8l-.6.3c-1.1.6-1.6 1-2 2.2-.5 1-1.2 1.7-1.9 2.5-1.5 1.7-1.5 3.1-1.5 5.3V84c-.2.1-.3.1-.5.2-2 .9-3.9 1.8-5.7 3-1.4.9-2.6 1.1-4.3 1h-1.5c0-.7-.1-1.5-.1-2.2v-.8c-.1-2.1-.1-2.1.4-2.7.4-.3.8-.4 1.2-.6.4-.2.7-.4 1.1-.6l1.8-.9c.3-.1.3-.1.6-.3.2-.1.4-.2.5-.3.4-.2.4-.2.6-.6.4-1.6.4-1.6.1-3.2l-.6-.6c-.3-.3-.3-.3-.3-.9.1-.8.3-1 .8-1.6l.5-.5c.2-.2.3-.4.5-.6l.3-.3c.5-.6 1-1.1 1.6-1.7.4-.5.9-1 1.3-1.4.5-.6 1-1.1 1.7-1.6.4.1.7.1 1.1.2.8 0 1.4-.5 2.1-.9 1-.6 1.9-.9 3-1.3.2-.1.4-.1.5-.2 4.3-1.2 9.4-.1 13.2 2.2z"/><path class="st4" d="M56.7 52.3c3.7-.1 7-.2 9.9 2.5 1.3 1.4 2.1 2.9 2.8 4.7.1.2.1.3.2.5s.1.3.2.5.1.2.2.5c1.1 2.6 2.2 5.3 3.3 8 .2.6.5 1.2.7 1.7.2.4.3.8.5 1.1.1.2.2.4.2.6.4.9.7 1.8 1.1 2.7.1.3.1.3.2.5.1.3.2.6.4.9.3.8.7 1.5 1.2 2.3.4 1.1.4 2.2-.1 3.2-.5.9-1.2 1.4-2.1 1.8-1.5.2-2.6 0-3.9-.7v-.4c-.2-.1-.3-.1-.5-.2-1.1-.4-2.1-.9-3.1-1.4-.2-.1-.2-.1-.3-.2-.3-.2-.6-.3-1-.5l-.6-.3c-.8-.6-.9-1.5-1.1-2.4-.1-.6-.1-.6-.1-1.2.4-.5.4-.5.9-.9.3-.6.3-1 .2-1.7-.4-.6-.8-1.1-1.3-1.6-.4-.4-.6-.7-.8-1.2 2.2 1 4.3 2.1 6.5 3.1-.4-1.2-.8-2.4-1.3-3.6-.1-.2-.1-.4-.2-.5-.2-.6-.5-1.1-.7-1.7-.2-.4-.3-.8-.5-1.2-.2-.6-.5-1.2-.7-1.8-.4-1.1-.9-2.1-1.3-3.2-2.1-5.6-2.1-5.6-6.7-9.2-.8-.3-1.5-.5-2.3-.7.1.1.1 0 .1 0z"/><path d="M37.4 41.6c.6.3 1 .6 1.5 1.1 1.3 1 1.3 1 3.8 2.1l.2 7.6c-3.4 0-3.4 0-4.4.1-3.1 0-5.5.7-7.8 2.8-1.6 1.7-2.4 3.9-3.2 6.1-.2.4-.3.8-.5 1.2-.1.2-.2.5-.3.7-.2.5-.4.9-.7 1.3v-3.9c-.1-4.9 1.1-9.2 4.6-12.8.8-.8 1.6-1.4 2.5-2 .3-.2.7-.5 1-.7.1-.1.3-.2.4-.3.9-.6 1.6-1.3 2.2-2.2.1-.1.2-.2.2-.3.1-.3.3-.6.5-.8z" style="fill:#c5bec6"/><path class="st2" d="M42.9 2.6h.4c2 0 3.9.2 5.8.8.1 0 .3.1.4.1 1.2.5 2.5 1 3.6 1.7 1.3.6 2.5.7 3.9.8 3.1.4 5.8 1.5 7.8 4 1.6 2.2 2.4 4.6 2.4 7.3v.4c0 1.7 0 3.4-.1 5.1v3.3c0 1-.1 2-.2 3-.1 0-.3-.1-.4-.1-.8-.1-1.6-.2-2.4-.2h-.5c-.4 0-.8 0-1.1-.1V18.4c0-3.3-.7-6.1-3-8.6-2-1.7-4.3-2.8-6.9-2.8-1.6-.1-2.8-.5-4.3-1.2-3.3-1.4-6.6-2.1-10.1-2.3v-.4c1.5-.4 3.1-.5 4.7-.5z"/><path d="M60 41.6c.3.4.5.7.8 1.1 1.1 1.5 2.5 2.5 4.1 3.5 3.2 2.1 5.4 5.5 6.3 9.3.2 1.2.3 2.3.3 3.5v5.5c-.5-.5-.7-1.1-.9-1.7-.1-.3-.2-.6-.3-.8-.2-.4-.3-.9-.5-1.3-1.4-3.6-1.4-3.6-4-6.3-.2-.1-.3-.2-.5-.4-.5-.4-.5-.4-1-.6-.5-.4-.7-.7-.9-1.3-1.3-2.7-3.2-4.6-5.7-6.2-.7-.4-1.2-.9-1.8-1.5.2-.1.3-.2.5-.3 1.1-.7 2.2-1.3 3.1-2.3.1-.2.1-.2.5-.2z" style="fill:#a59da8"/><path class="st3" d="M57.8 66.8c.1.1.2.2.3.2v.4c-.2.2-.4.4-.7.6-1.1 1-1.7 2.1-1.9 3.5v.7c-.1-.1-.2-.1-.3-.2-2.9-1.7-6.1-2.5-9.5-1.7-1.4.5-2.6 1.1-3.8 1.9v-.4c-.3-1.9-.8-3-2.3-4.1-.1-.1-.2-.1-.3-.2v-.4c1.4-1 3-1.7 4.6-2.2.2-.1.4-.1.5-.2 4.5-1.3 9.6-.2 13.4 2.1z"/><path class="st4" d="M33.3 71.2c0 .8-.3.9-.8 1.5-.8.8-.8.8-1.1 1.9.1.8.1.8.7 1.3.5.5.5.7.5 1.4-.1 1.2-.2 2.1-1.1 2.8l-1.2.6c-.1.1-.2.1-.3.2-.4.2-.7.3-1.1.5-1.4.7-2.8 1.4-4.1 2.2-1 .3-2.2.4-3.2 0-1-.6-1.6-1.3-2-2.4-.1-1-.1-2.1.4-2.9.4-.5.9-.8 1.5-1.1.2-.1.2-.1.3-.2 1.2-.7 2.4-1.3 3.6-1.9.2-.1.5-.2.7-.3l1.8-.9 1.8-.9c1.3-.7 2.5-1.3 3.6-1.8z"/><path class="st7" d="M38.4 66.8c1.4.5 2.4 1.6 3.1 2.8.5 1.2.6 2.3.1 3.6-.7 1.5-2.4 3.8-4 4.3-1.2.4-2.5.5-3.7 0-.9-.5-2.1-1.3-2.6-2.3-.1-.7-.1-1.2.3-1.8.2-.2.2-.2.4-.5l.5-.5c.2-.2.3-.4.5-.6.1-.2.1-.2.3-.3.5-.6 1-1.1 1.6-1.7.4-.5.9-1 1.3-1.4 1.2-1.5 1.2-1.5 2.2-1.6zM60 67.1c.5.4.5.4.9.8l.5.5c.1.2.3.3.4.5.2.2.2.2.3.4.3.4.6.7 1 1.1.2.2.4.4.5.6.2.2.4.5.6.7l.3.3c.2.2.4.4.5.6.2.3.5.5.7.8.4.6.4.9.3 1.7-.5 1.1-1.7 2-2.8 2.5-1.3.4-2.8.3-4-.1-.9-.6-1.5-1.5-2.1-2.3-.2-.3-.5-.6-.7-.9-.8-1-1-1.9-1-3.2.2-1.8 1.4-2.9 2.8-4 .7-.3 1.1-.2 1.8 0z"/><path d="M42.8 49.1c.1 0 .3.1.4.1.2 0 .4.1.6.2.2 0 .4.1.6.1 2.8.6 6.1.7 8.8-.1.5-.1.9-.1 1.4-.1.1 2 .1 3.5-1.3 5.2-1.1 1.2-2.5 2.2-4.2 2.4-2 .1-3.3-.7-4.8-2-1-1-1.7-2.1-1.7-3.5V50.2c.2-.4.2-.7.2-1.1z" style="fill:#fdccbe"/><path d="M42.8 44.9c1.8.4 1.8.4 2.8.6 2.4.4 4.8.2 7.1-.3.7-.1 1.3-.2 2-.3v4.4c-3.6.9-8.3 1.6-11.8-.2-.1-1.4-.1-2.8-.1-4.2z" style="fill:#ebae9d"/><path class="st10" d="M35.4 28.2h.2v8.1H33c-1.4 0-2.3-.1-3.4-1-.8-1-1.3-1.9-1.2-3.3.2-1.2.8-2 1.8-2.8.5-.2 1-.2 1.8-.2h3.4v-.8zM61.8 28.8c.7 0 1.4 0 2 .1h.6c2.4.1 2.4.1 3.3.8.9 1.1 1.4 2 1.3 3.6-.3 1.3-1 2-2 2.8-.7.3-1.2.4-1.9.4h-3.2c-.1-2.6-.1-5.1-.1-7.7z"/><path class="st11" d="M56 44.5c.2.2.2.2.5.3.2.1.4.2.5.4.2.1.4.3.6.4.2.1.4.3.6.4 1.7 1.3 3.1 2.6 4.3 4.3.1.1.2.2.2.3.5.8.8 1.4 1 2.3-.1 0-.2-.1-.4-.1-1.8-.5-3.6-.5-5.4-.6-1.6 0-1.6 0-3.3-.1v-7.6c.9-.2.9-.2 1.4 0z"/><path class="st3" d="M64.4 76.7c.2.1.4.1.6.2.8 3.1.5 6.4-.6 9.4l-.6-.3c-.3-.1-.5-.3-.8-.4l-.4-.2c-1.1-.5-2.1-.9-3.3-1.3V80.8c0-1.3-.1-2.5-.4-3.7l.6.3c1.3.5 2.6.5 3.8-.1.7-.3.7-.3 1.1-.6z"/><path d="M65.3 79.7c2 1 4.1 1.9 6.1 3v5.5h-2c-1.4 0-2.5-.3-3.8-.9-.2-.1-.3-.2-.5-.3-.4-.3-.4-.3-.8-.8.1-.4.1-.4.2-.9.3-1.2.5-2.3.5-3.5v-.6c.3-.6.3-1 .3-1.5z" style="fill:#a59da7"/><path d="m38 20.9 5.3-1.1 4.6-1.5 6.5-3.7 1.1-.7 2.1.4 2.5 4s1.9 8.6 1.9 9.1.1 6.3.1 6.3l-.4 4.3-1.5 3.7-4.1 3-2.8.6-4.8.6-6.1-.8-5.2-3.4-1.9-5.3-.1-8.4.7-4.1.7-2.1 1.4-.9z" style="fill:#feccbd"/><path class="st11" d="M32 79.7v.3c0 .5.1 1.1.1 1.6v.5c.1 1.1.3 2.2.5 3.3.1.3.1.6.2.9-1.9 1.3-3.2 1.9-5.5 1.9h-1.5c0-.7-.1-1.5-.1-2.2v-.8c-.1-2.1-.1-2.1.4-2.7.4-.3.8-.4 1.2-.6.4-.2.7-.4 1.1-.6l1.2-.6.6-.3c1.6-.7 1.6-.7 1.8-.7z"/><path d="M50.4 39.4c-.1-.1-.2-.1-.4-.2H48.2c-.6 0-1 .2-1.5.4-.7 0-1.1 0-1.7-.5-.3-.7-.2-1.1 0-1.7 1.1-1 2.4-1.2 3.9-1.2h.4c1.3 0 2.2.3 3.2 1.1.3.6.2 1.1 0 1.7-.7.8-1.3.6-2.1.4z" style="fill:#786f79"/><path d="M43.2 28.9c.7.1.7.1 1.1.4.3.8.3 1.6 0 2.4-.5.4-.9.4-1.5.4-.4-.1-.4-.1-.8-.5-.3-.6-.4-.9-.3-1.6.3-.8.7-1.1 1.5-1.1z" style="fill:#796f79"/><path d="M54.2 28.9h.4c.5.1.6.2.9.6.1.4.1.4.1.9v.5c-.1.4-.1.4-.3.8-.4.3-.6.3-1.1.3h-.4c-.5-.1-.6-.2-.9-.6-.1-.4-.1-.4-.1-.9V30c.1-.4.1-.4.3-.8.5-.3.7-.3 1.1-.3z" style="fill:#786e79"/></svg>