<svg xmlns="http://www.w3.org/2000/svg" viewBox="0 0 128 128" style="enable-background:new 0 0 128 128" xml:space="preserve"><path d="M34 13c2.5 0 5 0 7.4-.1h2.1c1.8 0 3.6 0 5.4.1 1.7 1.7 1.5 4.2 1.8 6.6 1.2 7.6 4.1 12.2 9.4 17.6 3.4 4 3.7 7.1 3.6 12.3V52c0 2.7 0 5.3-.1 8v5.6c0 3.9 0 7.8-.1 11.7-.1 5-.1 10-.1 15 0 3.8 0 7.7-.1 11.5v5.5c0 2.6 0 5.1-.1 7.7v2.3c-.1 3.7-.2 5.4-2.3 8.6-2.9.3-5.6.4-8.4.4H29c-5.7-.1-5.7-.1-8-2.3-.2-2.2-.2-2.2-.2-4.9v-9.8c0-3.6 0-7.2.1-10.9v-7.3c0-6 .1-12 .1-18 4.8 1.5 9.5 3.1 14.1 5.3.9.4 1.7.8 2.6 1.3.9.4 1.8.9 2.7 1.3 1.8.9 3.7 1.8 5.5 2.7.9.4 1.8.8 2.7 1.3 4.4 2 8.9 4 13.4 6V79l-6-2c-1.3-.5-2.5-1.1-3.8-1.7-1-.5-1-.5-2.1-1-.7-.3-1.4-.7-2.2-1-1.1-.5-1.1-.5-2.3-1.1-1.6-.7-3.1-1.5-4.7-2.2-2.4-1.1-4.8-2.3-7.2-3.4-1.5-.7-3-1.4-4.6-2.2-.7-.3-1.4-.7-2.2-1-5-2.4-5-2.4-6.1-3.5-.9-7.2-1.8-16.3 1.4-22.9 1.8-1.9 3.6-3.5 5.6-5.1C32.3 26 33.1 20.2 34 13z" style="fill:#dd9f3f"/><path d="M21 75c9.5 3.1 9.5 3.1 13.6 5 .7.3 1.5.7 2.2 1.1.7.4 1.5.7 2.2 1.1.8.4 1.5.7 2.3 1.1 5.5 2.6 5.5 2.6 6.7 3.8.1 1.6.1 3.3.1 4.9v17.2h6l1 4h-7v3h7v4h-7v8c-4.1.1-8.2.1-12.4.1-1.2 0-2.4 0-3.6.1h-6.5C23 128 23 128 21 126c-.2-2.2-.2-2.2-.2-4.9v-9.8c0-3.6 0-7.2.1-10.9v-7.3c0-6.1.1-12.1.1-18.1z" style="fill:#fc9727"/><path d="M73 90h34c0 7.2-.2 14.1-.9 21.2-.1 1-.2 1.9-.2 2.9-.1.9-.2 1.9-.3 2.8-.1.8-.1 1.7-.2 2.5-.4 2.6-.4 2.6-2.4 8.6H77c-1.8-3.6-2.3-5.2-2.6-9l-.3-3c-.1-1-.2-2-.2-3.1l-.3-3c-.5-6.7-.6-13.1-.6-19.9z" style="fill:#fc982a"/><path d="M34 13c2.5 0 5 0 7.4-.1h2.1c1.8 0 3.6 0 5.4.1 2.5 2.5 1.8 10 2 13h-12c2.2 5.3 4.2 9.6 8 14 1 3 1.1 5 1.1 8.1V65c-3.5-.6-6.4-1.5-9.6-3-.8-.4-1.7-.8-2.5-1.2-.9-.4-1.7-.8-2.6-1.2-.9-.4-1.7-.8-2.6-1.2-6.4-3.1-6.4-3.1-8.7-5.3-.3-2.5-.4-4.8-.4-7.3 0-1.3-.1-2.6-.1-4 .7-4.6 2.1-5.8 5.6-8.7C32 27 33.1 20.7 34 13z" style="fill:#fb9729"/><path d="M39 26c4.4-.5 8.6-.7 13 0 2 1.8 2.8 3.3 3.9 5.8s1.1 2.5 3.7 4.4c3.2 3.6 3 5.5 2.9 10.3v2.1c0 2.2-.1 4.5-.2 6.7 0 1.5 0 3-.1 4.6-.1 3.7-.1 7.4-.2 11.1-3.5-.6-6.5-1.6-9.8-3.1-.8-.4-1.6-.7-2.4-1.1-.6-.3-1.2-.6-1.8-.8v-2c-.1-3-.1-6-.2-9.1v-3.1c-.2-7.6-1.5-11.9-6.4-17.9-1.8-2.5-2-4.9-2.4-7.9z" style="fill:#e58024"/><path d="M21 60c13.8 6 27.4 12.4 41 19v14c-4-1.3-7.6-2.7-11.4-4.4-1-.5-2-.9-3.1-1.4-1-.5-2.1-1-3.2-1.5-2.1-1-4.1-1.9-6.2-2.9-1-.5-2-.9-3.1-1.4-4.7-2.2-9.4-4.3-14.1-6.4.1-5 .1-9.9.1-15z" style="fill:#4f4555"/><path d="M73 90h34c0 10 0 10-1 12-4.5 0-9.1 0-13.6.1H79.1c-1.7 0-3.3-.1-5-.1-2.9-2.8-1.1-8-1.1-12z" style="fill:#e4f9f5"/><path d="M48 94c6.9 3 6.9 3 14 6 0 4.5 0 9 .1 13.4v11C62 127 62 127 61 128c-2.2.1-4.4.1-6.6.1H48v-8h7v-4h-7v-3h7c-.3-1-.7-2-1-3l-6-1V94z" style="fill:#e47f24"/><path d="M91 102h15c.1 6.7-.3 13.3-1 20-4.9-.3-9.9-.7-15-1 .3-6.3.7-12.5 1-19z" style="fill:#e58126"/><path d="M32 0h19v14c-3 0-6 0-8.9.1H34.7C33 14 33 14 32 13c-.1-4.3 0-8.7 0-13z" style="fill:#352f3f"/><path d="M21 75c10.1 3.4 10.1 3.4 13.6 5 .7.3 1.5.7 2.2 1.1.7.4 1.5.7 2.2 1.1.8.4 1.5.7 2.3 1.1 5.5 2.6 5.5 2.6 6.7 3.8v6c-3.4-.7-6.5-2-9.7-3.3-1-.4-1.9-.8-2.9-1.2-4.1-1.8-8.2-3.6-12.4-5.4-.3 14.2-.7 28.4-1 43h-1V75z" style="fill:#f5bd51"/><path d="M34 13c2.5 0 5 0 7.4-.1h2.1c1.8 0 3.6 0 5.4.1 2.5 2.5 1.8 10 2 13-9.4.5-9.4.5-19 1 .8-4.6 1.4-9.2 2.1-14z" style="fill:#d3d9d1"/><path d="M21 40h1c-.1.8-.2 1.7-.3 2.6-.2 4 0 6.7 1.3 10.4 3.9 3.6 9.1 5.4 14 7.2 2.5 1 5 2.1 7.5 3.3 1.2.5 2.3 1 3.5 1.5v7c-3.7-.6-6.7-1.6-10-3.2-.9-.4-1.9-.9-2.8-1.3-1-.5-1.9-.9-2.9-1.4-1-.5-1.9-.9-2.9-1.4-7.2-3.4-7.2-3.4-8.3-4.6-.1-1.5-.1-3-.1-4.5V40z" style="fill:#f6c050"/><path d="M75 121h29c0 6 0 6-1 7-1.9.1-3.9.1-5.8.1H77.1c-1.6-2.7-2.1-4-2.1-7.1z" style="fill:#cfcec4"/><path d="M92 90h15c.1 9.8.1 9.8-1 12H74v-1h18V90z" style="fill:#dae0d5"/><path d="M48 73c11.8 4.9 11.8 4.9 14 6v14c-5.1-1.7-9.3-3.6-14-6V73z" style="fill:#37303f"/><path d="M29 116h26v4H29v-4z" style="fill:#fdfcfa"/><path d="M29 109h25c.3 1.3.7 2.6 1 4H29v-4z" style="fill:#fef8f2"/><path d="M75 121c4.9.3 9.9.7 15 1v6H77c-2-4-2-4-2-7z" style="fill:#d7ded7"/><path d="M32 0h5v13c-1.3.3-2.6.7-4 1-1-1-1-1-1.1-3.9V2.9C32 1.9 32 1 32 0z" style="fill:#484154"/><path d="M34 14h5v11h-6c.3-3.6.7-7.3 1-11z" style="fill:#e4f8f5"/></svg>